<?xml version="1.0" encoding="utf-8"?>
<!-- Generator: Adobe Illustrator 16.0.0, SVG Export Plug-In . SVG Version: 6.00 Build 0)  -->
<!DOCTYPE svg PUBLIC "-//W3C//DTD SVG 1.1//EN" "http://www.w3.org/Graphics/SVG/1.1/DTD/svg11.dtd">
<svg version="1.1" id="Layer_1" xmlns="http://www.w3.org/2000/svg" xmlns:xlink="http://www.w3.org/1999/xlink" x="0px" y="0px"
	 width="60px" height="60px" viewBox="0 0 60 60" enable-background="new 0 0 60 60" xml:space="preserve">
<g>
	<g opacity="0.4">
		
			<rect x="6.829" y="5.062" transform="matrix(-0.7126 0.7016 -0.7016 -0.7126 16.9137 7.0804)" fill="#A3A3A3" width="0.355" height="3.884"/>
		
			<rect x="12.32" y="10.563" transform="matrix(-0.7146 0.6995 -0.6995 -0.7146 30.1758 12.698)" fill="#A3A3A3" width="0.355" height="3.883"/>
		
			<rect x="1.338" y="-0.436" transform="matrix(0.7043 -0.7099 0.7099 0.7043 -0.623 1.5199)" fill="#A3A3A3" width="0.349" height="3.887"/>
		
			<rect x="17.447" y="15.688" transform="matrix(-0.7078 0.7064 -0.7064 -0.7078 42.5522 17.6629)" fill="#A3A3A3" width="0.353" height="3.888"/>
		
			<rect x="22.442" y="20.691" transform="matrix(-0.7092 0.705 -0.705 -0.7092 54.617 22.7412)" fill="#A3A3A3" width="0.353" height="3.889"/>
	</g>
	<g opacity="0.4">
		
			<rect x="52.816" y="5.051" transform="matrix(0.7152 0.6989 -0.6989 0.7152 19.9782 -35.0452)" fill="#A3A3A3" width="0.358" height="3.885"/>
		<polygon fill="#A3A3A3" points="46.271,14.008 46.021,13.758 48.731,10.975 48.984,11.225 		"/>
		
			<rect x="58.31" y="-0.449" transform="matrix(-0.7043 -0.7099 0.7099 -0.7043 98.6157 44.0673)" fill="#A3A3A3" width="0.351" height="3.89"/>
		
			<rect x="42.197" y="15.676" transform="matrix(0.7099 0.7043 -0.7043 0.7099 24.7042 -24.7328)" fill="#A3A3A3" width="0.352" height="3.889"/>
		
			<rect x="37.203" y="20.68" transform="matrix(0.7043 0.7099 -0.7099 0.7043 27.1114 -19.8453)" fill="#A3A3A3" width="0.354" height="3.888"/>
	</g>
	<g opacity="0.4">
		<g>
			
				<rect x="6.829" y="51.074" transform="matrix(-0.7105 -0.7037 0.7037 -0.7105 -25.3195 95.6172)" fill="#A3A3A3" width="0.357" height="3.886"/>
			
				<rect x="12.324" y="45.571" transform="matrix(-0.7126 -0.7015 0.7015 -0.7126 -11.9233 90.1413)" fill="#A3A3A3" width="0.352" height="3.884"/>
			
				<rect x="1.334" y="56.566" transform="matrix(0.6966 0.7174 -0.7174 0.6966 42.4349 16.666)" fill="#A3A3A3" width="0.353" height="3.89"/>
			
				<rect x="17.444" y="40.441" transform="matrix(-0.7057 -0.7085 0.7085 -0.7057 0.0283 84.7832)" fill="#A3A3A3" width="0.356" height="3.889"/>
			
				<rect x="22.442" y="35.435" transform="matrix(-0.7099 -0.7044 0.7044 -0.7099 12.3477 79.8462)" fill="#A3A3A3" width="0.355" height="3.891"/>
		</g>
		<g>
			
				<rect x="52.822" y="51.078" transform="matrix(0.7112 -0.703 0.703 0.7112 -21.9669 52.5691)" fill="#A3A3A3" width="0.356" height="3.886"/>
			
				<rect x="47.331" y="45.571" transform="matrix(0.7167 -0.6974 0.6974 0.7167 -19.6755 46.5925)" fill="#A3A3A3" width="0.354" height="3.883"/>
			
				<rect x="58.313" y="56.561" transform="matrix(-0.6959 0.7181 -0.7181 -0.6959 141.2077 57.2209)" fill="#A3A3A3" width="0.352" height="3.89"/>
			
				<rect x="42.207" y="40.446" transform="matrix(0.7139 -0.7002 0.7002 0.7139 -17.5565 41.8044)" fill="#A3A3A3" width="0.356" height="3.887"/>
			
				<rect x="37.206" y="35.44" transform="matrix(0.7002 -0.714 0.714 0.7002 -15.4842 37.9006)" fill="#A3A3A3" width="0.353" height="3.892"/>
		</g>
	</g>
	<g opacity="0.1">
		<path fill="#A3A3A3" d="M28.553,26.442c-0.024-0.025-0.053-0.052-0.081-0.069c-0.374-0.283-0.854-0.358-1.479-0.225
			c-0.558,0.137-1.073,0.423-1.48,0.829c-0.095,0.099-0.149,0.227-0.141,0.354c0.004,0.119,0.064,0.229,0.159,0.309
			c2.341,1.879,4.958,4.502,6.83,6.839c0.084,0.101,0.188,0.156,0.314,0.16c0.123,0.012,0.25-0.044,0.352-0.144l0,0
			c0.407-0.408,0.694-0.928,0.829-1.492c0.135-0.612,0.06-1.093-0.225-1.466c-0.01-0.025-0.047-0.062-0.065-0.079
			C31.854,29.983,30.025,28.155,28.553,26.442z"/>
		<path fill="#A3A3A3" d="M24.143,29.769c-0.657-0.244-1.325-0.097-1.821,0.401c-0.302,0.3-0.398,0.749-0.293,1.354
			c0.067,0.352,0.21,0.766,0.427,1.247c0.01,0.017,0.013,0.034,0.021,0.053c0.008,0.016,0.015,0.024,0.019,0.037
			c0.056,0.093,0.146,0.165,0.266,0.229c0.306,0.146,0.682,0.112,0.881-0.083c0.058-0.061,0.095-0.122,0.116-0.201
			c0.002-0.018,0.009-0.045,0.015-0.061l0-0.023c0-0.003-0.002-0.006-0.002-0.009c0.015-0.06,0.022-0.111,0.037-0.149
			c1.488,0.902,2.749,2.156,3.642,3.647c-0.041,0.01-0.092,0.022-0.154,0.033c-0.009-0.004-0.016,0.001-0.024,0.001
			c-0.025,0-0.049,0.003-0.072,0.013c-0.073,0.02-0.134,0.057-0.192,0.111c-0.199,0.201-0.233,0.575-0.084,0.883
			c0.059,0.115,0.134,0.207,0.221,0.257c0.021,0.014,0.037,0.022,0.053,0.029c0.012,0,0.021,0.003,0.021,0.003
			c0.511,0.238,0.915,0.378,1.276,0.445c0.595,0.106,1.042,0,1.349-0.297c0,0,0,0,0-0.003c0.496-0.504,0.643-1.146,0.404-1.802
			c-0.134-0.41-0.452-1.112-1.223-2.072c-0.831-1.022-1.805-1.997-2.824-2.819C25.451,30.384,24.717,29.948,24.143,29.769z"/>
		<path fill="#A3A3A3" d="M29.767,24.139c-0.244-0.658-0.1-1.324,0.4-1.827c0.299-0.298,0.753-0.398,1.355-0.295
			c0.351,0.072,0.763,0.21,1.239,0.431c0.024,0.008,0.041,0.009,0.059,0.023c0.014,0.005,0.025,0.011,0.037,0.017
			c0.09,0.055,0.174,0.145,0.224,0.268c0.157,0.304,0.118,0.681-0.081,0.878c-0.057,0.059-0.119,0.098-0.197,0.123
			c-0.02,0.003-0.051,0.01-0.063,0.011l-0.025,0.002c0,0-0.006,0.001-0.008,0c-0.059,0.015-0.108,0.02-0.149,0.034
			c0.899,1.493,2.153,2.754,3.647,3.648c0.01-0.042,0.021-0.093,0.024-0.152c0-0.009,0.004-0.018,0.004-0.027
			c0-0.023,0.002-0.045,0.019-0.072c0.02-0.074,0.054-0.135,0.11-0.193c0.195-0.2,0.571-0.231,0.876-0.083
			c0.116,0.06,0.207,0.132,0.26,0.219c0.017,0.022,0.023,0.038,0.026,0.054c0.006,0.01,0.011,0.022,0.008,0.024
			c0.233,0.508,0.374,0.917,0.446,1.277c0.103,0.594,0,1.043-0.302,1.347l0,0c-0.507,0.498-1.144,0.645-1.797,0.404
			c-0.417-0.129-1.114-0.451-2.071-1.223c-1.022-0.83-1.998-1.806-2.82-2.823C30.382,25.446,29.944,24.712,29.767,24.139z"/>
	</g>
</g>
<g>
	<g>
		<g opacity="0.4">
			
				<rect x="-69.911" y="4.685" transform="matrix(-0.713 0.7012 -0.7012 -0.713 -114.9262 60.0153)" fill="#A3A3A3" width="0.33" height="3.603"/>
			
				<rect x="-64.81" y="9.778" transform="matrix(-0.7145 0.6996 -0.6996 -0.7145 -102.7339 65.0803)" fill="#A3A3A3" width="0.329" height="3.601"/>
			
				<rect x="-75.01" y="-0.407" transform="matrix(0.7064 -0.7079 0.7079 0.7064 -22.9671 -52.572)" fill="#A3A3A3" width="0.324" height="3.605"/>
			
				<rect x="-60.049" y="14.524" transform="matrix(-0.7101 0.7041 -0.7041 -0.7101 -90.9151 70.0862)" fill="#A3A3A3" width="0.326" height="3.606"/>
			
				<rect x="-55.41" y="19.157" transform="matrix(-0.7101 0.7041 -0.7041 -0.7101 -79.717 74.7438)" fill="#A3A3A3" width="0.328" height="3.606"/>
		</g>
		<g opacity="0.4">
			
				<rect x="-27.2" y="4.674" transform="matrix(0.7159 0.6982 -0.6982 0.7159 -3.1584 20.7146)" fill="#A3A3A3" width="0.33" height="3.603"/>
			
				<rect x="-32.301" y="9.765" transform="matrix(0.7152 0.6989 -0.6989 0.7152 -1.0682 25.7551)" fill="#A3A3A3" width="0.33" height="3.604"/>
			
				<rect x="-22.097" y="-0.418" transform="matrix(-0.7041 -0.7101 0.7101 -0.7041 -38.363 -13.2157)" fill="#A3A3A3" width="0.325" height="3.607"/>
			
				<rect x="-37.063" y="14.514" transform="matrix(0.7108 0.7034 -0.7034 0.7108 0.8063 30.672)" fill="#A3A3A3" width="0.327" height="3.606"/>
			
				<rect x="-41.702" y="19.146" transform="matrix(0.7064 0.7079 -0.7079 0.7064 2.6317 35.5543)" fill="#A3A3A3" width="0.328" height="3.606"/>
		</g>
		<g opacity="0.4">
			<g>
				
					<rect x="-69.911" y="47.29" transform="matrix(-0.7093 -0.7049 0.7049 -0.7093 -153.8195 34.748)" fill="#A3A3A3" width="0.332" height="3.603"/>
				
					<rect x="-64.807" y="42.195" transform="matrix(-0.7153 -0.6988 0.6988 -0.7153 -141.6289 30.293)" fill="#A3A3A3" width="0.326" height="3.603"/>
				
					<rect x="-75.013" y="52.376" transform="matrix(0.6996 0.7145 -0.7145 0.6996 16.2282 69.7593)" fill="#A3A3A3" width="0.327" height="3.608"/>
				
					<rect x="-60.052" y="37.445" transform="matrix(-0.7041 -0.7101 0.7101 -0.7041 -129.9236 24.3603)" fill="#A3A3A3" width="0.33" height="3.606"/>
				
					<rect x="-55.41" y="32.809" transform="matrix(-0.7108 -0.7034 0.7034 -0.7108 -118.861 20.3586)" fill="#A3A3A3" width="0.329" height="3.609"/>
			</g>
			<g>
				
					<rect x="-27.195" y="47.294" transform="matrix(0.7101 -0.7041 0.7041 0.7101 -42.4074 -4.798)" fill="#A3A3A3" width="0.33" height="3.604"/>
				
					<rect x="-32.295" y="42.193" transform="matrix(0.7145 -0.6996 0.6996 0.7145 -39.9532 -9.9197)" fill="#A3A3A3" width="0.328" height="3.603"/>
				
					<rect x="-22.096" y="52.372" transform="matrix(-0.6981 0.716 -0.716 -0.6981 1.5461 107.6997)" fill="#A3A3A3" width="0.327" height="3.608"/>
				
					<rect x="-37.054" y="37.448" transform="matrix(0.7115 -0.7026 0.7026 0.7115 -38.2207 -14.598)" fill="#A3A3A3" width="0.329" height="3.605"/>
				
					<rect x="-41.7" y="32.813" transform="matrix(0.7026 -0.7116 0.7116 0.7026 -36.9848 -19.2604)" fill="#A3A3A3" width="0.328" height="3.611"/>
			</g>
		</g>
		<g opacity="0.1">
			<path fill="#A3A3A3" d="M-49.735,24.486c-0.023-0.024-0.049-0.049-0.075-0.064c-0.347-0.263-0.793-0.332-1.374-0.209
				c-0.519,0.127-0.997,0.391-1.376,0.768c-0.088,0.091-0.137,0.21-0.13,0.328c0.004,0.111,0.058,0.212,0.147,0.286
				c2.175,1.74,4.605,4.169,6.343,6.333c0.079,0.094,0.173,0.145,0.292,0.149c0.114,0.01,0.232-0.042,0.326-0.134l0,0
				c0.379-0.379,0.645-0.86,0.77-1.383c0.125-0.565,0.056-1.01-0.207-1.355c-0.01-0.024-0.043-0.057-0.063-0.075
				C-46.67,27.764-48.367,26.071-49.735,24.486z"/>
			<path fill="#A3A3A3" d="M-53.831,27.566c-0.611-0.227-1.23-0.09-1.692,0.37c-0.28,0.279-0.37,0.695-0.273,1.256
				c0.063,0.323,0.196,0.707,0.396,1.152c0.01,0.017,0.013,0.032,0.021,0.051c0.007,0.014,0.014,0.021,0.017,0.033
				c0.051,0.086,0.136,0.154,0.246,0.213c0.285,0.133,0.635,0.103,0.819-0.078c0.053-0.056,0.088-0.113,0.108-0.185
				c0.002-0.018,0.009-0.045,0.014-0.059l0.001-0.02c-0.001-0.003-0.003-0.007-0.003-0.009c0.014-0.054,0.02-0.101,0.034-0.138
				c1.382,0.836,2.553,1.999,3.383,3.377c-0.039,0.008-0.086,0.02-0.143,0.029c-0.008-0.002-0.016,0.002-0.023,0.002
				c-0.023,0-0.046,0.004-0.067,0.014c-0.068,0.018-0.125,0.051-0.179,0.103c-0.184,0.187-0.217,0.532-0.079,0.817
				c0.056,0.107,0.125,0.191,0.206,0.238c0.02,0.014,0.034,0.021,0.049,0.025c0.011,0.002,0.02,0.006,0.02,0.006
				c0.474,0.219,0.85,0.348,1.186,0.411c0.551,0.097,0.968,0,1.252-0.276c0,0,0,0,0-0.002c0.461-0.467,0.597-1.061,0.375-1.668
				c-0.124-0.381-0.419-1.03-1.136-1.92c-0.771-0.946-1.676-1.849-2.622-2.61C-52.616,28.135-53.299,27.731-53.831,27.566z"/>
			<path fill="#A3A3A3" d="M-48.607,22.351c-0.227-0.608-0.093-1.225,0.371-1.69c0.278-0.276,0.698-0.369,1.259-0.274
				c0.323,0.067,0.708,0.195,1.152,0.4c0.021,0.007,0.037,0.008,0.053,0.021c0.011,0.005,0.024,0.011,0.034,0.016
				c0.086,0.051,0.162,0.134,0.209,0.247c0.146,0.281,0.109,0.631-0.074,0.813c-0.055,0.054-0.112,0.09-0.186,0.114
				c-0.017,0.003-0.045,0.009-0.058,0.011l-0.023,0.001c0,0-0.006,0.001-0.008,0c-0.054,0.014-0.1,0.018-0.139,0.031
				c0.835,1.382,2.001,2.55,3.388,3.379c0.008-0.039,0.02-0.087,0.023-0.141c0-0.009,0.004-0.017,0.004-0.025
				c0-0.022,0.002-0.042,0.016-0.067c0.018-0.069,0.051-0.125,0.104-0.179c0.183-0.186,0.531-0.215,0.814-0.078
				c0.107,0.056,0.193,0.124,0.242,0.204c0.014,0.021,0.021,0.035,0.023,0.049c0.006,0.01,0.01,0.021,0.008,0.023
				c0.217,0.471,0.346,0.848,0.412,1.182c0.096,0.55,0,0.966-0.279,1.248l0,0c-0.471,0.46-1.062,0.595-1.67,0.374
				c-0.387-0.12-1.033-0.417-1.924-1.133c-0.949-0.769-1.854-1.672-2.619-2.615C-48.036,23.563-48.443,22.883-48.607,22.351z"/>
		</g>
	</g>
	<rect x="-18.6" y="56.589" opacity="0.4" fill="#A3A3A3" enable-background="new    " width="0.324" height="2.185"/>
	<rect x="-19.531" y="57.518" opacity="0.4" fill="#A3A3A3" enable-background="new    " width="2.188" height="0.324"/>
</g>
</svg>
